<svg width="61" height="19" viewBox="0 0 61 19" xmlns="http://www.w3.org/2000/svg">
    <path d="M48.562 7.582c-1.73 0-2.715 1.556-2.715 3.164 0 1.574.917 3.078 2.628 3.078.623 0 1.245-.294 1.626-.744l-.002.212c-.01.804-.12 1.657-1.118 1.705l-.09.003h-1.505v1.4h1.539c2.116 0 2.787-1.461 2.833-3.27l.002-.205V7.772H50.1l-.017.554a1.97 1.97 0 0 0-1.521-.744zm-24.171 0c-1.677 0-2.663 1.539-2.663 3.095 0 1.59.986 3.147 2.697 3.147.57 0 1.155-.23 1.539-.646l.07-.08v.536h1.642V7.772h-1.643v.554a2.183 2.183 0 0 0-1.642-.744zM14.88 5.3h-1.694v3.008c-.363-.466-.985-.726-1.59-.726-1.695 0-2.68 1.539-2.68 3.095 0 1.59.985 3.147 2.697 3.147.571 0 1.158-.231 1.527-.665l.063-.079v.536h1.677V5.3zM4.82 7.582c-1.695 0-2.68 1.539-2.68 3.095 0 1.59.985 3.147 2.697 3.147.57 0 1.154-.23 1.538-.646l.07-.08v.536h1.643V7.772H6.46v.554a2.183 2.183 0 0 0-1.642-.744zm50.659 0c-1.902 0-2.836 1.4-2.836 3.182 0 1.78 1.107 3.06 2.922 3.06 1.19 0 2.2-.617 2.624-1.724l.039-.109-1.539-.242c-.225.467-.57.795-1.124.795-.836 0-1.139-.777-1.157-1.5l-.001-.073h3.855v-.207c0-1.764-.864-3.182-2.783-3.182zm-13.763 0c-1.694 0-2.68 1.539-2.68 3.095 0 1.59.986 3.147 2.697 3.147.57 0 1.155-.23 1.539-.646l.07-.08v.536h1.642V7.772h-1.625v.554a2.183 2.183 0 0 0-1.643-.744zM37.548 5.3h-1.677v2.49h-.968v1.4h.968v4.444h1.677V9.19h1.02V7.772h-1.02V5.3zm-5.29 2.282c-.572 0-1.128.185-1.494.643l-.062.083v-.536h-1.678v5.862h1.678v-3.03c.005-.707.073-1.69 1.002-1.69.792 0 .888.647.898 1.276l.001.331v3.113h1.677v-3.58l-.002-.18c-.04-1.281-.517-2.292-2.02-2.292zm-14.921.208h-1.85l2.68 5.844h.864l2.697-5.844h-1.815l-1.21 3.302-1.366-3.302zm7.469 1.28c.864 0 1.4.83 1.4 1.624 0 .778-.536 1.643-1.4 1.643-.865 0-1.383-.847-1.383-1.625 0-.796.518-1.643 1.383-1.643zm-12.812-.018c.865 0 1.383.847 1.383 1.642 0 .778-.518 1.643-1.383 1.643-.864 0-1.383-.847-1.383-1.643 0-.795.519-1.642 1.383-1.642zm-6.778 0c.865 0 1.4.847 1.4 1.642 0 .778-.535 1.643-1.4 1.643-.864 0-1.383-.847-1.383-1.643 0-.795.519-1.642 1.383-1.642zm43.709.017c.864 0 1.383.847 1.383 1.643 0 .778-.519 1.625-1.383 1.625-.865 0-1.383-.847-1.383-1.625s.518-1.643 1.383-1.643zm-6.812-.017c.864 0 1.4.847 1.4 1.642 0 .778-.536 1.643-1.4 1.643-.865 0-1.383-.847-1.383-1.643 0-.795.518-1.642 1.383-1.642zm13.468-.294c.615 0 .99.542 1.095 1.105l.012.07h-2.23c.069-.604.45-1.175 1.123-1.175z" fill="#9B9B9B" fill-rule="nonzero"/>
</svg>
