<svg width="61" height="18" viewBox="0 0 61 18" xmlns="http://www.w3.org/2000/svg">
    <g fill="#9B9B9B" fill-rule="nonzero">
        <path d="M43.535 6.58a1.51 1.51 0 0 1 .842-.229c.716 0 1.188.288 1.432.865l.977-.551c-.21-.44-.53-.78-.96-1.034a2.838 2.838 0 0 0-1.449-.373c-.682 0-1.246.187-1.692.568a1.799 1.799 0 0 0-.674 1.44c0 .45.126.814.387 1.102.262.288.573.483.944.593.37.11.732.22 1.094.33.363.11.674.246.935.399.261.16.388.364.388.627 0 .313-.127.542-.37.694-.254.144-.565.22-.953.22-.412 0-.766-.092-1.06-.279a1.36 1.36 0 0 1-.599-.77l-1.002.575c.194.475.522.856.994 1.144.463.288 1.019.432 1.676.432.733 0 1.33-.186 1.802-.55.472-.365.699-.856.699-1.466 0-.466-.126-.856-.379-1.153a1.925 1.925 0 0 0-.935-.61c-.37-.11-.732-.22-1.095-.322a4.66 4.66 0 0 1-.943-.39c-.26-.152-.396-.355-.396-.61a.688.688 0 0 1 .337-.652m-5.718 0a1.51 1.51 0 0 1 .842-.229c.716 0 1.188.288 1.432.865l.977-.551c-.21-.44-.53-.78-.96-1.034a2.838 2.838 0 0 0-1.449-.373c-.673 0-1.246.187-1.692.568a1.799 1.799 0 0 0-.674 1.44c0 .45.126.814.387 1.102.261.288.573.483.943.593.371.11.733.22 1.095.33.362.11.674.246.935.399.261.16.387.364.387.627 0 .313-.126.542-.37.694-.253.144-.564.22-.952.22-.412 0-.766-.092-1.06-.279a1.36 1.36 0 0 1-.599-.77l-1.002.575c.194.475.522.856.994 1.144.463.288 1.019.432 1.676.432.732 0 1.33-.186 1.802-.55.471-.365.699-.856.699-1.466 0-.466-.126-.856-.38-1.153a1.925 1.925 0 0 0-.934-.61c-.37-.11-.733-.22-1.095-.322a4.66 4.66 0 0 1-.943-.39c-.261-.152-.396-.355-.396-.61-.008-.28.11-.5.337-.652M19.551 8.8c0 1.313-1.044 2.372-2.341 2.372-1.289 0-2.341-1.059-2.341-2.372s1.044-2.372 2.34-2.372c1.298 0 2.342 1.059 2.342 2.372m1.204 3.542V5.258h-1.153v.958a3.454 3.454 0 0 0-2.384-.958c-1.928 0-3.486 1.585-3.486 3.542 0 1.957 1.558 3.542 3.486 3.542.927 0 1.76-.365 2.384-.958v.958h1.153zM21.05 5.258h1v7.083h-1z"/>
        <path d="M22.019 5.258h1v7.083h-1z"/>
        <path d="m27.914 5.258-1.82 2.457-1.81-2.457h-1.457l2.543 3.44-2.695 3.644h1.44l1.971-2.678 1.98 2.678h1.44L26.81 8.69l2.535-3.432z"/>
        <path d="M33.733 6.86c.412.33.673.813.775 1.457h-4.599c.101-.593.363-1.068.784-1.423.42-.356.951-.534 1.6-.534.539 0 1.027.17 1.44.5m1.937 2.474c.025-.178.042-.356.042-.526 0-.974-.32-1.813-.96-2.508-.64-.694-1.466-1.042-2.476-1.042-1.061 0-1.937.34-2.602 1.009C29 6.936 28.67 7.783 28.67 8.8c0 1.025.346 1.873 1.028 2.533.682.67 1.575 1 2.661 1 1.347 0 2.358-.508 3.032-1.525l-1.02-.568c-.412.653-1.077.983-1.978.983-.649 0-1.205-.17-1.642-.5-.447-.33-.725-.796-.851-1.398h5.769v.009z"/>
    </g>
</svg>
