<svg width="61" height="19" viewBox="0 0 61 19" xmlns="http://www.w3.org/2000/svg">
    <path d="M44.95 7.895v-.924h1.783v7.241h-1.784v-.848c-.588.623-1.221.936-1.898.936-.855 0-1.562-.351-2.121-1.052-.555-.715-.832-1.609-.832-2.68 0-1.05.277-1.927.832-2.628.555-.702 1.25-1.015 2.082-1.052 1.075-.05 1.658.368 1.937 1.007zm-29.584 0v-.924h1.783v7.241h-1.783v-.848c-.588.623-1.22.936-1.898.936-.856 0-1.562-.351-2.12-1.052-.556-.715-.833-1.609-.833-2.68 0-1.05.277-1.927.832-2.628.554-.702 1.25-1.015 2.082-1.052 1.075-.05 1.659.368 1.937 1.007zM5.441 5.31v2.302c.435-.482 1.017-.723 1.748-.723.739 0 1.325.218 1.76.652.324.325.536.788.638 1.39.065.371.097.923.097 1.655 0 .741-.032 1.297-.097 1.668-.102.602-.314 1.065-.638 1.39-.435.435-1.021.653-1.76.653-.74 0-1.341-.255-1.803-.765v.681H3.64V5.309H5.44zM42.273 5.3l-8.908 8.931V7.005h1.651v3.137l4.83-4.842h2.427zm-7.965 0-8.91 8.931V7.005h1.653v3.137L31.88 5.3h2.428zm-4.518 5.502 2.178 3.41H29.83l-1.325-2.122 1.285-1.288zm7.978 0 2.178 3.41h-2.138l-1.325-2.122 1.285-1.288zm-15.84-3.914c.71 0 1.28.214 1.704.64.49.49.735 1.177.735 2.056v4.628h-1.802V9.834c0-.455-.13-.797-.388-1.029-.213-.194-.48-.291-.805-.291-.332 0-.605.097-.818.291-.258.232-.387.574-.387 1.03v4.377h-1.803V6.971h1.76v.667c.472-.5 1.073-.75 1.804-.75zm29.61-.009c.18 0 .362.015.541.043-.174.515-.238 1.06-.352 1.592l-.798-.009c-.36.005-.57.107-.79.32-.25.25-.374.588-.374 1.015v4.364h-1.803V6.962h1.76v.695c.434-.518 1.04-.778 1.817-.778zM55.487 5.3v1.665h1.276v1.582h-1.276v3.474c0 .436.208.654.624.654h.652v1.53h-.985c-.684 0-1.215-.219-1.594-.655-.333-.38-.5-.852-.5-1.417V8.547h-1.057l.296-1.582h.762V5.3h1.802zM43.37 8.514c-.61 0-1.021.2-1.235.598-.17.296-.254.787-.254 1.473 0 .695.084 1.19.254 1.486.214.4.626.598 1.235.598.609 0 1.02-.199 1.235-.598.17-.295.254-.791.254-1.486 0-.686-.085-1.177-.254-1.473-.215-.399-.626-.598-1.235-.598zm-29.583 0c-.61 0-1.02.2-1.235.598-.17.296-.254.787-.254 1.473 0 .695.085 1.19.254 1.486.214.4.626.598 1.235.598.609 0 1.02-.199 1.236-.598.168-.295.253-.791.253-1.486 0-.686-.085-1.177-.253-1.473-.215-.399-.627-.598-1.236-.598zm-7.125 0c-.499 0-.836.2-1.012.598-.138.296-.208.787-.208 1.473 0 .695.07 1.19.208 1.486.176.4.513.598 1.012.598.5 0 .837-.199 1.012-.598.139-.295.209-.791.209-1.486 0-.686-.07-1.177-.209-1.473-.175-.399-.513-.598-1.012-.598z" fill="#9B9B9B" fill-rule="evenodd"/>
</svg>
