<svg width="61" height="18" viewBox="0 0 61 18" xmlns="http://www.w3.org/2000/svg">
    <path d="M28.936 3.174a.986.986 0 0 1 .37.856c-.04.353-.233.659-.542 1.05-.31.392-3.097 3.792-3.17 3.874-.073.082-.077.21-.06.318.017.108.193.34.258.435l.043.063c.193.288.97 1.447 1.403 2.09h.007l.287.429.062-.428.83-5.743h1.736l-.838 5.752-.001-.001-.187 1.285h-1.013l.897 1.339L27.25 15.9l-1.192-2.083-.212-.37-.106-.186-.212-.37-.585-1.022h-.005l-.601-1.047c-.043-.073-.108-.177-.25.004-.053.07-.414.516-.838 1.042h-.005l-.103.128-1.32 1.633-.076.094-.027.034-.61-1.494.293-.402.005-.001.074-.1.59-.812.215-.297c.503-.691.98-1.348 1-1.379.043-.064.055-.223-.004-.335-.06-.112-1.358-2.333-1.422-2.458-.065-.125-.146-.37-.03-.86.116-.491.42-.638.558-.66.137-.02.27.031.43.276l.085.13c.275.417 1.033 1.557 1.32 1.99l.092.137.019.029c.055.086.146.111.219.008.073-.103 2.718-3.757 2.847-3.933.13-.177.455-.53.77-.577.313-.047.549-.009.768.155zm17.081 2.944-.313 2.19-.065.452c-.14.977-.27 1.903-.3 2.126-.036.27-.12.634-.272.984l-.003-.001-.07.151a2.018 2.018 0 0 1-.522.682c-.55.44-1.142.663-2.577.663s-1.993-.86-2.079-1.42l-.011-.076h-.002c-.068-.528-.008-1.046.107-1.766.12-.757.597-3.977.597-3.977h1.82l-.308 2.112-.105.716-.312 2.13c-.034.23-.03.545.069.777h.004c.05.113.124.205.228.256.318.155.834.13 1.048-.06.069-.06.135-.12.198-.194l.005-.001.044-.054c.113-.152.21-.364.276-.724.047-.252.186-1.167.332-2.143l.067-.453c.18-1.208.349-2.37.349-2.37h1.795zm-25.211.361c.6.448.6 1.222.532 1.713-.052.373-.367 2.516-.515 3.527l-.021.142-.056.377-.464.361c-.575.422-1.365.654-2.319.74-.953.086-2.182-.163-2.646-1.213a2.53 2.53 0 0 1-.096-.256h-.004c-.312-1 .016-2.174 1.2-2.774 1.133-.576 2.772-.618 3.15-.62h.079s.146-.585-.172-.87c-.354-.316-.722-.214-1.52-.085-.7.113-1.47.42-1.653.495l-.04.017.206-1.46s.542-.387 1.899-.593c1.357-.207 1.838.051 2.44.499zm-7.749-.58c.696 0 1.345.223 1.628.503.284.28.378.447.485.934 0 0 .056.352-.017.86l-.505 3.475-.027.19-.188 1.289h-1.834s.08-.558.187-1.288l.139-.95.057-.395c.143-.983.275-1.89.29-2.002.034-.254.107-.783-.069-1.016-.176-.232-.493-.292-.734-.275-.24.017-.739.09-.872.886-.08.482-.342 2.229-.536 3.533l-.032.218-.191 1.289H9.012l.19-1.29.138-.946.058-.397c.155-1.057.3-2.052.313-2.161.03-.241.073-.81-.249-1.016-.322-.207-.902-.16-1.138.168-.236.327-.288.486-.37.985-.035.217-.168 1.125-.308 2.083l-.064.443-.124.853-.001-.001-.02.144-.164 1.135H5.439l.005-.033a28719.73 28719.73 0 0 0 .328-2.225l.09-.615.315-2.128c.06-.404.386-1.145.897-1.554a3.078 3.078 0 0 1 1.955-.693c.79 0 1.254.194 1.52.34.2.11.346.242.407.3l.031.032s.219-.215.649-.392c.43-.176.725-.284 1.421-.284zm24.361 0c.696 0 1.345.223 1.628.503.284.28.378.447.486.934 0 0 .056.352-.018.86l-.504 3.475-.028.19-.183 1.256-.005.033H36.96l.188-1.288.11-.752.057-.396c.154-1.056.302-2.08.318-2.199.035-.254.108-.783-.068-1.016-.176-.232-.494-.292-.735-.275-.24.017-.739.09-.872.886-.08.482-.342 2.229-.536 3.533l-.032.218-.186 1.256-.005.033h-1.826l.19-1.29.139-.946.058-.397c.154-1.057.3-2.052.313-2.161.03-.241.073-.81-.25-1.016-.321-.207-.901-.16-1.137.168-.237.327-.288.486-.37.985-.035.217-.169 1.125-.308 2.083l-.065.443-.124.853-.001-.001-.02.144-.164 1.135H29.8l.19-1.287.143-.971.06-.41.345-2.333c.06-.404.387-1.145.898-1.554a3.077 3.077 0 0 1 1.954-.693c.79 0 1.254.194 1.52.34.2.11.347.242.407.3l.031.032s.22-.215.649-.392c.43-.176.726-.284 1.421-.284zm15.875 0c.696 0 1.344.223 1.628.503.283.28.378.447.485.934 0 0 .056.352-.017.86l-.505 3.475-.028.19-.188 1.289h-1.834l.144-.987.044-.301v-.001l.026-.174.084-.577.057-.396.319-2.199c.034-.254.107-.783-.069-1.016-.176-.232-.494-.292-.735-.275-.24.017-.738.09-.871.886a374 374 0 0 0-.536 3.533l-.033.218-.19 1.289h-1.826l.189-1.29.139-.946.058-.397c.155-1.057.3-2.052.313-2.161.03-.241.073-.81-.249-1.016-.322-.207-.902-.16-1.138.168-.236.327-.288.486-.37.985-.051.317-.312 2.11-.496 3.379l-.002-.001-.02.144-.164 1.135h-1.834l.19-1.287.548-3.714c.06-.404.387-1.145.898-1.554a3.078 3.078 0 0 1 1.954-.693c.79 0 1.254.194 1.52.34.2.11.347.242.408.3l.03.032s.22-.215.65-.392c.429-.176.725-.284 1.421-.284zm-33.81 3.774s-.18.011-.386.026l-.21.017a16.35 16.35 0 0 0-.1.008 4.68 4.68 0 0 0-1.314.284c-.576.216-.8.663-.8 1.128 0 .257.087.533.322.725h.014c.156.124.377.21.68.23.413.028.811-.102 1.093-.229h.014l.072-.033c.194-.094.314-.177.314-.177l.3-1.98zm5.524-6.534c.529 0 .831.601.676 1.343-.156.742-.71 1.343-1.238 1.343-.529 0-.831-.601-.676-1.343.156-.742.71-1.343 1.238-1.343z" fill="#9B9B9B" fill-rule="evenodd"/>
</svg>
