<svg width="61" height="18" viewBox="0 0 61 18" xmlns="http://www.w3.org/2000/svg">
    <path d="M43.345 14.577h1.094v-1.099h-1.094v1.1zm-6.35-4.657c0 .13-.016.284-.051.457a4.908 4.908 0 0 1-1.369 2.536c-.334.33-.882.671-1.217.671-.087 0-.159-.013-.235-.172-.103-.218-.123-.69.13-1.362.24-.644.672-1.301 1.216-1.852.457-.463.972-.674 1.258-.674.123 0 .262 0 .267.395v.001zm-7.9-.786a4.113 4.113 0 0 1-.03.17.751.751 0 0 1-.364-.404c-.057-.154-.034-.276.071-.372a.331.331 0 0 1 .203-.089c.01 0 .019.002.023.004.114.11.166.26.097.691zm-3.323.742a2.93 2.93 0 0 1-.134.636c-.37 1.156-.654 1.795-1.641 2.659-.309.27-.608.42-.841.42a.39.39 0 0 1-.342-.185c-.14-.205-.224-.652 0-1.232.32-.823 1.099-1.768 1.854-2.245.157-.1.35-.195.56-.276.232-.09.371-.11.447-.11.044 0 .067.007.067.006.012.013.05.075.03.327zM43.768 7.89c.53-1.075.835-2.78.468-3.845-.257-.745-.841-1.152-1.58-1.126-1.413.044-1.959 1.819-2.22 2.671-.653 2.118-1.042 4.427-1.175 6.97l-.129.096c-.244.184-.803.604-1.027.619-.024-.043-.077-.166-.1-.455-.028-.334.004-1.2.03-1.896.016-.428.03-.797.03-1.013v-.006c-.012-.884-.536-1.454-1.338-1.454-.641 0-1.415.38-2.02.991-.647.657-1.164 1.449-1.456 2.23-.165.44-.254.86-.267 1.238-.106.082-.21.16-.274.203-.776.522-.997.343-1.07.283-.352-.286-.013-1.157.285-1.925.278-.718.541-1.395.416-1.961a.536.536 0 0 0-.79-.348c-.234.136-.988.304-1.432.323a4.6 4.6 0 0 0 .033-.18c.05-.32.17-1.067-.406-1.63-.386-.378-1.007-.411-1.511-.082-.559.364-.775 1.04-.538 1.68.145.392.447.83 1.074 1.08-.43 1.247-1.178 2.674-1.883 3.21-.094-.337-.187-1.179-.064-3.28.01-.162.016-.28.017-.343.023-.316.011-.768-.312-1.12-.147-.16-.414-.35-.854-.35-.247 0-.52.06-.834.182a4.376 4.376 0 0 0-.744.368c-.959.607-1.875 1.718-2.28 2.765-.32.823-.277 1.656.113 2.228.283.414.73.651 1.226.652.5 0 1.034-.238 1.545-.685a6.366 6.366 0 0 0 1.021-1.099c.069.984.268 1.507.624 1.738a.78.78 0 0 0 .428.128.9.9 0 0 0 .418-.109c1.151-.604 2.134-2.55 2.638-4.08.084.003.172.004.262.002.273-.005.685-.06 1.083-.15-.072.22-.164.457-.248.671-.41 1.056-.92 2.37.039 3.15.591.48 1.36.415 2.284-.19.25.4.636.617 1.108.617.946 0 1.865-.878 1.967-.978a5.99 5.99 0 0 0 .617-.714c.028.307.123 1.027.715 1.294.14.063.28.09.424.09.38 0 .768-.193 1.132-.432A46.08 46.08 0 0 0 39.337 18l1.032-.649a42.717 42.717 0 0 1-.065-4.214c.793-.541 1.493-.887 2.096-1.037l.454-1.153c-.734.042-1.552.326-2.473.868.163-2.14.52-4.099 1.077-5.908.174-.567.583-1.894 1.235-1.915.23-.008.411.056.532.405.244.707.024 1.9-.274 2.697l.817.796zM24.566 6.722c-1.406 1.085-3.044 1.466-4.456 1.054.598-2.795 1.631-5.5 3.29-6.422a1.889 1.889 0 0 1 1.69-.082 1.84 1.84 0 0 1 1.058 1.227c.34 1.394-.37 3.288-1.582 4.223zm2.656-4.486a2.953 2.953 0 0 0-1.689-1.98 2.98 2.98 0 0 0-2.669.127c-2.042 1.136-3.17 4.114-3.791 6.918-.906-.588-1.543-1.547-1.855-2.779l-.98.616c.462 1.49 1.372 2.652 2.605 3.312a36.227 36.227 0 0 0-.512 4.495l-.003.07a31.252 31.252 0 0 0-.028 2.77l1.088-.684c-.01-.886.026-1.654.044-2.032l.004-.072c.055-1.162.199-2.626.462-4.128 1.727.467 3.685.012 5.343-1.267 1.578-1.219 2.43-3.526 1.981-5.366z" fill="#9B9B9B" fill-rule="evenodd"/>
</svg>
