<svg width="27" height="18" xmlns="http://www.w3.org/2000/svg" viewBox="0 0 24 16"><title>troy</title><rect x="0.25" y="0.25" width="23.5" height="15.5" rx="2" style="fill:#fff;stroke:#000;stroke-opacity:0.20000000298023224;stroke-width:0.5px"/><path d="M21.11,4.53a.86.86,0,0,0-.76.49L18.91,8.3,18.39,5a.58.58,0,0,0-.6-.49H16L17.55,10a.56.56,0,0,1,0,.36,1,1,0,0,1-1,.84h-1c-.24,0-.45.17-.53.53l-.24,1.36h1.81a3.23,3.23,0,0,0,2.76-1.76L23,4.57Z" transform="translate(0 0.03)" style="fill:#323e48;fill-rule:evenodd"/><path d="M3.53,2.93c.52,0,.8.2.68.76l-.16.88H5.29L5,6.1H3.77L3.45,8c-.12.64.56.76.92.76h.2l-.32,1.72a1.34,1.34,0,0,1-.4,0c-.92,0-2.69-.24-2.37-2.2L1.84,6.1H1l.28-1.53h.89l.28-1.64Z" transform="translate(0 0.03)" style="fill:#323e48;fill-rule:evenodd"/><path d="M13.86,4.61l-.32,1.81a1.19,1.19,0,0,1-.4,2.24l-.32,1.8H13a3,3,0,0,0,.88-5.85" transform="translate(0 0.03)" style="fill:#00adbb;fill-rule:evenodd"/><path d="M12.46,8.54a1.19,1.19,0,0,1,.4-2.24l.32-1.81H13a3,3,0,0,0-.84,5.85Z" transform="translate(0 0.03)" style="fill:#00adbb;fill-rule:evenodd"/><path d="M6,4.53h1c.52,0,.8.21.72.77l-.12.64A2.5,2.5,0,0,1,9.78,4.49H10L9.66,6.42a1.36,1.36,0,0,0-.4,0,1.71,1.71,0,0,0-1.69,1,2.65,2.65,0,0,0-.24.8l-.4,2.16H5Z" transform="translate(0 0.03)" style="fill:#323e48;fill-rule:evenodd"/></svg>