<svg width="61" height="18" viewBox="0 0 61 18" xmlns="http://www.w3.org/2000/svg">
    <path d="M18.575 5.698c.084 0 .133.08.113.152l-1.711 6.35a.133.133 0 0 1-.123.093h-2.83a.125.125 0 0 1-.12-.093l-.738-2.936c-.023-.087-.069-.088-.092 0l-.716 2.936a.12.12 0 0 1-.12.093H9.361a.125.125 0 0 1-.121-.093L7.542 5.84a.12.12 0 0 1 .118-.142h2.814c.052 0 .104.03.118.1l.592 3.125c.016.08.083.08.098-.002l.632-3.125c.013-.053.054-.099.12-.099l2.207.001a.12.12 0 0 1 .116.095l.6 3.13c.015.08.074.08.09 0l.64-3.13a.123.123 0 0 1 .116-.095h2.772zm19.04.122c0-.073.058-.12.12-.122h2.418c.053 0 .12.04.12.124v4.156c0 .03.03.055.061.055h3.95a.12.12 0 0 1 .12.123v2.02a.119.119 0 0 1-.121.117h-6.55a.12.12 0 0 1-.118-.119V5.82zm15.524 3.184c0-1.324-.235-2.53-1.423-3.028-.794-.332-2.154-.369-2.846-.358-2.32.038-3.683.174-3.683.174a.118.118 0 0 0-.11.122v6.181c0 .07.064.113.095.116a35.25 35.25 0 0 0 3.698.184c.692 0 2.153-.093 2.846-.37 1.199-.473 1.423-1.696 1.423-3.02zm-5.42 1.054V7.996a.06.06 0 0 1 .054-.061c.318-.025.775-.042 1.19-.042 1.283 0 1.377.25 1.377 1.149s-.094 1.148-1.377 1.148c-.43 0-1.149-.04-1.149-.04-.092-.003-.096-.04-.096-.092zM24.72 9.042c0-1.01-.234-1.343-1.442-1.343-1.207 0-1.451.333-1.451 1.343 0 1.009.244 1.343 1.451 1.343 1.208 0 1.442-.334 1.442-1.343zm2.865-.046c0 1.324-.224 2.62-1.423 3.093-.562.222-1.545.361-2.893.361-1.349 0-2.34-.139-2.903-.361-1.198-.472-1.423-1.77-1.423-3.093 0-1.325.225-2.612 1.423-3.085.562-.222 1.554-.361 2.903-.361 1.348 0 2.331.14 2.893.361 1.199.473 1.423 1.76 1.423 3.085zm9.303 3.093a24.436 24.436 0 0 0-2.26-1.981l-.107-.084c.045-.006.09-.014.134-.022 1.166-.21 1.794-1.282 1.794-2.127 0-.926-.227-1.774-1.396-2.112-1.035-.3-6.51-.126-6.51-.126a.12.12 0 0 0-.111.116l-.001 6.423a.12.12 0 0 0 .12.118l2.422-.001c.06 0 .118-.046.118-.117v-2.075s0-.033.03-.052c.023-.015.051-.009.073.01.009.007 1.694 1.434 2.375 2.2.02.022.048.036.081.036h3.154c.051 0 .082-.024.107-.062.025-.036.02-.1-.023-.144zm-5.797-3.324V7.572s-.003-.025.017-.043a.06.06 0 0 1 .041-.017c.327 0 .666-.012 1-.012.304 0 .627.008.927.016.406.011.601.192.601.581 0 .494-.196.706-.62.718-.3.01-.604.013-.908.013-.337 0-.671.001-1.001-.009-.056-.033-.057-.054-.057-.054z" fill="#9B9B9B" fill-rule="evenodd"/>
</svg>
